<svg preserveAspectRatio="none" width="100%" height="100%" overflow="visible" style="display: block;" viewBox="0 0 37.9328 13.1574" fill="none" xmlns="http://www.w3.org/2000/svg">
<g id="Group">
<path id="Vector" d="M0 12.858V0H1.33763V12.858H0ZM0.985889 12.858V11.6434H7.02342V12.858H0.985889Z" fill="var(--fill-0, #0B1E54)"/>
<path id="Vector_2" d="M11.705 13.1039C11.0477 13.1039 10.4664 12.9866 9.96273 12.7519C9.4574 12.5173 9.06766 12.1769 8.79188 11.7307C8.51609 11.2845 8.37903 10.7442 8.37903 10.1096C8.37903 9.47507 8.5227 8.9595 8.81004 8.52489C9.09739 8.09029 9.51354 7.75814 10.0602 7.5301C10.6051 7.3004 11.2657 7.18638 12.0402 7.18638H14.7683V8.19109H11.9527C11.2128 8.19109 10.6464 8.36956 10.2534 8.72815C9.86033 9.08674 9.66383 9.55274 9.66383 10.1278C9.66383 10.7029 9.8686 11.1821 10.2798 11.5275C10.691 11.8745 11.2475 12.048 11.9527 12.048C12.387 12.048 12.8031 11.9687 13.2028 11.81C13.6008 11.6514 13.936 11.382 14.2068 11.0003C14.476 10.6186 14.623 10.0931 14.6461 9.42384L15.0342 9.96916C14.988 10.6616 14.8228 11.2399 14.5421 11.7043C14.2597 12.1686 13.8782 12.5173 13.3977 12.7519C12.9138 12.9866 12.3507 13.1039 11.705 13.1039ZM14.8558 12.8577V10.0567H14.6445V6.74517C14.6445 6.05278 14.4628 5.52068 14.0995 5.15052C13.7362 4.78037 13.1731 4.59529 12.4101 4.59529C12.0584 4.59529 11.7033 4.6019 11.345 4.61347C10.9866 4.62503 10.6464 4.63991 10.3244 4.65808C10.0007 4.67626 9.71666 4.69609 9.4706 4.71923V3.55753C9.72822 3.5344 9.99245 3.51126 10.2633 3.48647C10.5325 3.46334 10.8115 3.44847 11.0989 3.44186C11.3862 3.4369 11.6653 3.43359 11.9345 3.43359C12.8857 3.43359 13.6503 3.55092 14.2316 3.78557C14.8129 4.02022 15.2373 4.38708 15.5081 4.88613C15.7773 5.38518 15.9127 6.04617 15.9127 6.86745V12.8561H14.8558V12.8577Z" fill="var(--fill-0, #0B1E54)"/>
<path id="Vector_3" d="M24.0096 13.1574C23.1889 13.1574 22.4689 12.9756 21.8529 12.6121C21.2369 12.2485 20.7547 11.7379 20.4096 11.0802C20.0628 10.4225 19.8778 9.66567 19.8547 8.80803H20.2593V12.8599H19.2024V0.00195312H20.5219V6.43176L20.0116 7.61164C20.0347 6.67303 20.2263 5.87653 20.583 5.22545C20.9413 4.57437 21.4219 4.07698 22.0263 3.73656C22.6307 3.39615 23.3193 3.22595 24.0939 3.22595C24.7742 3.22595 25.3902 3.35484 25.9418 3.61263C26.4933 3.87042 26.9657 4.22405 27.3587 4.67022C27.7517 5.11639 28.0506 5.63031 28.2571 6.21198C28.4618 6.79366 28.5659 7.40673 28.5659 8.05285V8.29907C28.5659 8.93362 28.4602 9.54009 28.2488 10.1218C28.0374 10.7034 27.7352 11.2223 27.3422 11.6801C26.9491 12.1378 26.4702 12.4997 25.9071 12.7624C25.3473 13.0252 24.7131 13.1574 24.0096 13.1574ZM23.8693 11.994C24.5728 11.994 25.1772 11.8238 25.6825 11.4834C26.1862 11.143 26.5743 10.6853 26.8451 10.1102C27.1143 9.53513 27.2497 8.88901 27.2497 8.17348C27.2497 7.45796 27.111 6.79696 26.8368 6.22686C26.5611 5.65675 26.168 5.20893 25.6577 4.88008C25.1475 4.55124 24.5513 4.38599 23.8709 4.38599C23.2368 4.38599 22.6621 4.52645 22.1452 4.80903C21.6283 5.0916 21.2204 5.48654 20.9215 5.99881C20.6226 6.50943 20.4723 7.11093 20.4723 7.80498V8.66757C20.4723 9.32526 20.6226 9.90363 20.9215 10.4027C21.2204 10.9017 21.6283 11.2917 22.1452 11.5743C22.6604 11.8536 23.2351 11.994 23.8693 11.994Z" fill="var(--fill-0, #0B1E54)"/>
<path id="Vector_4" d="M34.1841 13.1234C32.9868 13.1234 32.0654 12.8624 31.4213 12.3402C30.7756 11.818 30.447 11.1157 30.4354 10.2349H31.6674C31.6905 10.6811 31.8936 11.0859 32.2751 11.4495C32.6566 11.813 33.2924 11.9964 34.1841 11.9964C35.0164 11.9964 35.6423 11.8229 36.0585 11.4759C36.4746 11.1305 36.6827 10.7092 36.6827 10.2167C36.6827 9.75899 36.5093 9.4037 36.1641 9.15087C35.8174 8.89804 35.317 8.73775 34.6597 8.66669L33.6028 8.56093C32.7573 8.46674 32.0736 8.20565 31.5518 7.77766C31.0299 7.34966 30.769 6.75973 30.769 6.00785C30.769 5.45592 30.9094 4.97504 31.1918 4.56358C31.4742 4.15211 31.8688 3.83318 32.3791 3.60348C32.8894 3.37379 33.4905 3.25977 34.1841 3.25977C35.1816 3.25977 35.9941 3.49442 36.6216 3.96372C37.2491 4.43303 37.5695 5.10229 37.5811 5.97149H36.3491C36.3375 5.52532 36.1493 5.15021 35.786 4.8445C35.4227 4.53879 34.8876 4.38676 34.1841 4.38676C33.4806 4.38676 32.9142 4.5454 32.5558 4.86268C32.1975 5.17995 32.0191 5.56663 32.0191 6.02602C32.0191 6.41271 32.1545 6.73329 32.4237 6.98612C32.6929 7.23895 33.1157 7.39428 33.6903 7.45212L34.7472 7.55788C35.6852 7.66364 36.4515 7.93464 37.0443 8.36759C37.6372 8.8022 37.9328 9.42518 37.9328 10.2349C37.9328 10.7868 37.7776 11.2826 37.4671 11.7238C37.1566 12.1633 36.719 12.5071 36.1559 12.7533C35.5928 12.9995 34.9355 13.1234 34.1841 13.1234Z" fill="var(--fill-0, #0B1E54)"/>
</g>
</svg>
