<svg preserveAspectRatio="none" width="100%" height="100%" overflow="visible" style="display: block;" viewBox="0 0 38.7585 13.1938" fill="none" xmlns="http://www.w3.org/2000/svg">
<g id="Group">
<path id="Vector" d="M0 13.0166V0H2.11215V13.0166H0ZM1.7604 13.0166V11.0617H4.6999C5.41495 11.0617 6.0557 10.9477 6.61883 10.718C7.18196 10.4883 7.66252 10.1694 8.06216 9.75791C8.4618 9.34644 8.764 8.86226 8.96878 8.30537C9.17355 7.74683 9.27759 7.14533 9.27759 6.49921C9.27759 5.80682 9.1752 5.18384 8.96878 4.63191C8.764 4.07998 8.4618 3.60406 8.06216 3.20582C7.66252 2.80757 7.18196 2.49855 6.61883 2.28043C6.0557 2.06395 5.41661 1.95489 4.6999 1.95489H1.7604V0H4.5232C5.68579 0 6.69645 0.176816 7.56013 0.528794C8.42216 0.880773 9.14218 1.35669 9.71687 1.95489C10.2916 2.55308 10.7209 3.22895 11.0017 3.98083C11.284 4.73271 11.4244 5.50772 11.4244 6.30587V6.69255C11.4244 7.44443 11.284 8.19796 11.0017 8.95645C10.7193 9.71329 10.2916 10.3941 9.71687 10.9989C9.14218 11.6037 8.42382 12.0912 7.56013 12.4614C6.6981 12.8315 5.68579 13.0166 4.5232 13.0166H1.7604Z" fill="var(--fill-0, #0B1E54)"/>
<path id="Vector_2" d="M16.2995 13.1938C15.6075 13.1938 15.0031 13.0731 14.4862 12.8335C13.9693 12.5923 13.5714 12.2403 13.289 11.7759C13.0066 11.3116 12.8662 10.758 12.8662 10.1119C12.8662 9.43105 13.028 8.86755 13.3501 8.42138C13.6721 7.97521 14.1328 7.63976 14.7323 7.41667C15.3301 7.19359 16.0468 7.08287 16.8791 7.08287H19.2555V8.43956H16.8263C16.2037 8.43956 15.7281 8.58994 15.4011 8.88904C15.0725 9.18813 14.909 9.57977 14.909 10.0606C14.909 10.5415 15.0725 10.9265 15.4011 11.2141C15.7297 11.5016 16.2054 11.6454 16.8263 11.6454C17.1896 11.6454 17.5364 11.5776 17.865 11.4421C18.1936 11.3066 18.4661 11.0802 18.6841 10.7646C18.9004 10.4473 19.021 10.0012 19.0458 9.42609L19.5742 10.1135C19.5148 10.7828 19.3546 11.3446 19.0904 11.7958C18.8261 12.2485 18.4628 12.5939 17.9988 12.8352C17.5347 13.0731 16.97 13.1938 16.2995 13.1938ZM19.381 12.9475V10.1119H19.0458V6.90605C19.0458 6.31942 18.8938 5.87325 18.5883 5.56754C18.2828 5.26183 17.832 5.1098 17.2325 5.1098C16.9039 5.1098 16.5406 5.11641 16.1409 5.12798C15.7413 5.13955 15.3516 5.15442 14.9701 5.1726C14.5886 5.19078 14.2517 5.21061 13.9578 5.23374V3.45401C14.2154 3.43088 14.5011 3.4094 14.8116 3.39287C15.122 3.3747 15.4457 3.36148 15.7793 3.34826C16.1145 3.33669 16.4332 3.33008 16.7388 3.33008C17.7015 3.33008 18.4992 3.45401 19.1333 3.70023C19.7674 3.94645 20.2397 4.33809 20.5502 4.87185C20.8607 5.4056 21.0159 6.11947 21.0159 7.01181V12.9475H19.381Z" fill="var(--fill-0, #0B1E54)"/>
<path id="Vector_3" d="M22.5846 4.9855V3.45365H29.2035V4.9855H22.5846ZM27.7766 13.0529C26.9906 13.0529 26.3267 12.9472 25.7884 12.7356C25.2483 12.5241 24.8404 12.1606 24.5647 11.6434C24.2889 11.1261 24.1518 10.4288 24.1518 9.54801V0.687398H26.1054V9.72317C26.1054 10.2156 26.2375 10.5957 26.5018 10.8584C26.766 11.1228 27.1376 11.255 27.6198 11.255H29.2035V13.0513H27.7766V13.0529Z" fill="var(--fill-0, #0B1E54)"/>
<path id="Vector_4" d="M34.0437 13.1938C33.3518 13.1938 32.7474 13.0731 32.2305 12.8335C31.7136 12.5923 31.3156 12.2403 31.0332 11.7759C30.7508 11.3116 30.6105 10.758 30.6105 10.1119C30.6105 9.43105 30.7723 8.86755 31.0943 8.42138C31.4164 7.97521 31.8771 7.63976 32.4766 7.41667C33.0744 7.19359 33.7911 7.08287 34.6234 7.08287H36.9998V8.43956H34.5705C33.948 8.43956 33.4724 8.58994 33.1454 8.88904C32.8167 9.18813 32.6533 9.57977 32.6533 10.0606C32.6533 10.5415 32.8167 10.9265 33.1454 11.2141C33.474 11.5016 33.9496 11.6454 34.5705 11.6454C34.9338 11.6454 35.2806 11.5776 35.6093 11.4421C35.9379 11.3066 36.2104 11.0802 36.4284 10.7646C36.6447 10.4473 36.7653 10.0012 36.79 9.42609L37.3185 10.1135C37.259 10.7828 37.0988 11.3446 36.8346 11.7958C36.5704 12.2485 36.2071 12.5939 35.743 12.8352C35.279 13.0731 34.7126 13.1938 34.0437 13.1938ZM37.1236 12.9475V10.1119H36.7884V6.90605C36.7884 6.31942 36.6364 5.87325 36.3309 5.56754C36.0254 5.26183 35.5746 5.1098 34.9751 5.1098C34.6465 5.1098 34.2832 5.11641 33.8836 5.12798C33.4839 5.13955 33.0942 5.15442 32.7127 5.1726C32.3312 5.19078 31.9944 5.21061 31.7004 5.23374V3.45401C31.958 3.43088 32.2437 3.4094 32.5542 3.39287C32.8646 3.3747 33.1883 3.36148 33.5219 3.34826C33.8571 3.33669 34.1759 3.33008 34.4814 3.33008C35.4441 3.33008 36.2418 3.45401 36.8759 3.70023C37.51 3.94645 37.9823 4.33809 38.2928 4.87185C38.6033 5.4056 38.7585 6.11947 38.7585 7.01181V12.9475H37.1236Z" fill="var(--fill-0, #0B1E54)"/>
</g>
</svg>
