<svg preserveAspectRatio="none" width="100%" height="100%" overflow="visible" style="display: block;" viewBox="0 0 31.1237 20" fill="none" xmlns="http://www.w3.org/2000/svg">
<g id="Group">
<path id="Vector" d="M3.17895 9.99917L11.583 18.4087L9.9943 20L0 9.99917L9.9943 0L11.583 1.58969L3.17895 9.99917Z" fill="var(--fill-0, #1E6FFF)"/>
<path id="Vector_2" d="M25.2385 9.99917L15.2442 20L13.1255 17.8782L5.25156 9.99917L15.2442 0L25.2385 9.99917Z" fill="var(--fill-0, #0B1E54)"/>
<path id="Vector_3" d="M15.2435 7.0523L12.2997 9.99805L15.2435 12.9438L18.1873 9.99805L15.2435 7.0523Z" fill="var(--fill-0, #1E6FFF)"/>
<path id="Vector_4" d="M28.1798 7.05231L25.236 9.99805L28.1798 12.9438L31.1236 9.99805L28.1798 7.05231Z" fill="var(--fill-0, #1E6FFF)"/>
<path id="Vector_5" d="M15.6488 7.45748C16.1475 7.91522 18.3092 9.79079 21.6368 9.81888C25.0684 9.84697 27.3028 7.89043 27.785 7.44922C27.7685 9.13145 27.7503 10.8137 27.7338 12.4959C27.2351 12.0481 25.0189 10.1593 21.6368 10.1874C18.3257 10.2155 16.1706 12.0646 15.6637 12.524C15.6587 10.8352 15.6538 9.14632 15.6488 7.45748Z" fill="var(--fill-0, #1E6FFF)"/>
</g>
</svg>
