<svg viewBox="0 0 120 40" fill="none" xmlns="http://www.w3.org/2000/svg">
  <!-- Icon mark (group1 scaled to fit left side) -->
  <g transform="translate(2, 10) scale(0.58)">
    <path d="M3.17895 9.99917L11.583 18.4087L9.9943 20L0 9.99917L9.9943 0L11.583 1.58969L3.17895 9.99917Z" fill="#1E6FFF"/>
    <path d="M25.2385 9.99917L15.2442 20L13.1255 17.8782L5.25156 9.99917L15.2442 0L25.2385 9.99917Z" fill="#0B1E54"/>
    <path d="M15.2435 7.0523L12.2997 9.99805L15.2435 12.9438L18.1873 9.99805L15.2435 7.0523Z" fill="#1E6FFF"/>
    <path d="M28.1798 7.05231L25.236 9.99805L28.1798 12.9438L31.1236 9.99805L28.1798 7.05231Z" fill="#1E6FFF"/>
    <path d="M15.6488 7.45748C16.1475 7.91522 18.3092 9.79079 21.6368 9.81888C25.0684 9.84697 27.3028 7.89043 27.785 7.44922C27.7685 9.13145 27.7503 10.8137 27.7338 12.4959C27.2351 12.0481 25.0189 10.1593 21.6368 10.1874C18.3257 10.2155 16.1706 12.0646 15.6637 12.524C15.6587 10.8352 15.6538 9.14632 15.6488 7.45748Z" fill="#1E6FFF"/>
  </g>

  <!-- "Data" text (group2 scaled and positioned) -->
  <g transform="translate(22, 13) scale(0.65)">
    <path d="M0 13.0166V0H2.11215V13.0166H0ZM1.7604 13.0166V11.0617H4.6999C5.41495 11.0617 6.0557 10.9477 6.61883 10.718C7.18196 10.4883 7.66252 10.1694 8.06216 9.75791C8.4618 9.34644 8.764 8.86226 8.96878 8.30537C9.17355 7.74683 9.27759 7.14533 9.27759 6.49921C9.27759 5.80682 9.1752 5.18384 8.96878 4.63191C8.764 4.07998 8.4618 3.60406 8.06216 3.20582C7.66252 2.80757 7.18196 2.49855 6.61883 2.28043C6.0557 2.06395 5.41661 1.95489 4.6999 1.95489H1.7604V0H4.5232C5.68579 0 6.69645 0.176816 7.56013 0.528794C8.42216 0.880773 9.14218 1.35669 9.71687 1.95489C10.2916 2.55308 10.7209 3.22895 11.0017 3.98083C11.284 4.73271 11.4244 5.50772 11.4244 6.30587V6.69255C11.4244 7.44443 11.284 8.19796 11.0017 8.95645C10.7193 9.71329 10.2916 10.3941 9.71687 10.9989C9.14218 11.6037 8.42382 12.0912 7.56013 12.4614C6.6981 12.8315 5.68579 13.0166 4.5232 13.0166H1.7604Z" fill="#0B1E54"/>
    <path d="M16.2995 13.1938C15.6075 13.1938 15.0031 13.0731 14.4862 12.8335C13.9693 12.5923 13.5714 12.2403 13.289 11.7759C13.0066 11.3116 12.8662 10.758 12.8662 10.1119C12.8662 9.43105 13.028 8.86755 13.3501 8.42138C13.6721 7.97521 14.1328 7.63976 14.7323 7.41667C15.3301 7.19359 16.0468 7.08287 16.8791 7.08287H19.2555V8.43956H16.8263C16.2037 8.43956 15.7281 8.58994 15.4011 8.88904C15.0725 9.18813 14.909 9.57977 14.909 10.0606C14.909 10.5415 15.0725 10.9265 15.4011 11.2141C15.7297 11.5016 16.2054 11.6454 16.8263 11.6454C17.1896 11.6454 17.5364 11.5776 17.865 11.4421C18.1936 11.3066 18.4661 11.0802 18.6841 10.7646C18.9004 10.4473 19.021 10.0012 19.0458 9.42609L19.5742 10.1135C19.5148 10.7828 19.3546 11.3446 19.0904 11.7958C18.8261 12.2485 18.4628 12.5939 17.9988 12.8352C17.5347 13.0731 16.97 13.1938 16.2995 13.1938ZM19.381 12.9475V10.1119H19.0458V6.90605C19.0458 6.31942 18.8938 5.87325 18.5883 5.56754C18.2828 5.26183 17.832 5.1098 17.2325 5.1098C16.9039 5.1098 16.5406 5.11641 16.1409 5.12798C15.7413 5.13955 15.3516 5.15442 14.9701 5.1726C14.5886 5.19078 14.2517 5.21061 13.9578 5.23374V3.45401C14.2154 3.43088 14.5011 3.4094 14.8116 3.39287C15.122 3.3747 15.4457 3.36148 15.7793 3.34826C16.1145 3.33669 16.4332 3.33008 16.7388 3.33008C17.7015 3.33008 18.4992 3.45401 19.1333 3.70023C19.7674 3.94645 20.2397 4.33809 20.5502 4.87185C20.8607 5.4056 21.0159 6.11947 21.0159 7.01181V12.9475H19.381Z" fill="#0B1E54"/>
    <path d="M22.5846 4.9855V3.45365H29.2035V4.9855H22.5846ZM27.7766 13.0529C26.9906 13.0529 26.3267 12.9472 25.7884 12.7356C25.2483 12.5241 24.8404 12.1606 24.5647 11.6434C24.2889 11.1261 24.1518 10.4288 24.1518 9.54801V0.687398H26.1054V9.72317C26.1054 10.2156 26.2375 10.5957 26.5018 10.8584C26.766 11.1228 27.1376 11.255 27.6198 11.255H29.2035V13.0513H27.7766V13.0529Z" fill="#0B1E54"/>
    <path d="M34.0437 13.1938C33.3518 13.1938 32.7474 13.0731 32.2305 12.8335C31.7136 12.5923 31.3156 12.2403 31.0332 11.7759C30.7508 11.3116 30.6105 10.758 30.6105 10.1119C30.6105 9.43105 30.7723 8.86755 31.0943 8.42138C31.4164 7.97521 31.8771 7.63976 32.4766 7.41667C33.0744 7.19359 33.7911 7.08287 34.6234 7.08287H36.9998V8.43956H34.5705C33.948 8.43956 33.4724 8.58994 33.1454 8.88904C32.8167 9.18813 32.6533 9.57977 32.6533 10.0606C32.6533 10.5415 32.8167 10.9265 33.1454 11.2141C33.474 11.5016 33.9496 11.6454 34.5705 11.6454C34.9338 11.6454 35.2806 11.5776 35.6093 11.4421C35.9379 11.3066 36.2104 11.0802 36.4284 10.7646C36.6447 10.4473 36.7653 10.0012 36.79 9.42609L37.3185 10.1135C37.259 10.7828 37.0988 11.3446 36.8346 11.7958C36.5704 12.2485 36.2071 12.5939 35.743 12.8352C35.279 13.0731 34.7126 13.1938 34.0437 13.1938ZM37.1236 12.9475V10.1119H36.7884V6.90605C36.7884 6.31942 36.6364 5.87325 36.3309 5.56754C36.0254 5.26183 35.5746 5.1098 34.9751 5.1098C34.6465 5.1098 34.2832 5.11641 33.8836 5.12798C33.4839 5.13955 33.0942 5.15442 32.7127 5.1726C32.3312 5.19078 31.9944 5.21061 31.7004 5.23374V3.45401C31.958 3.43088 32.2437 3.4094 32.5542 3.39287C32.8646 3.3747 33.1883 3.36148 33.5219 3.34826C33.8571 3.33669 34.1759 3.33008 34.4814 3.33008C35.4441 3.33008 36.2418 3.45401 36.8759 3.70023C37.51 3.94645 37.9823 4.33809 38.2928 4.87185C38.6033 5.4056 38.7585 6.11947 38.7585 7.01181V12.9475H37.1236Z" fill="#0B1E54"/>
  </g>

  <!-- "Labs" text (group3 scaled and positioned) -->
  <g transform="translate(22, 26) scale(0.65)">
    <path d="M0 12.858V0H1.33763V12.858H0ZM0.985889 12.858V11.6434H7.02342V12.858H0.985889Z" fill="#0B1E54"/>
    <path d="M11.705 13.1039C11.0477 13.1039 10.4664 12.9866 9.96273 12.7519C9.4574 12.5173 9.06766 12.1769 8.79188 11.7307C8.51609 11.2845 8.37903 10.7442 8.37903 10.1096C8.37903 9.47507 8.5227 8.9595 8.81004 8.52489C9.09739 8.09029 9.51354 7.75814 10.0602 7.5301C10.6051 7.3004 11.2657 7.18638 12.0402 7.18638H14.7683V8.19109H11.9527C11.2128 8.19109 10.6464 8.36956 10.2534 8.72815C9.86033 9.08674 9.66383 9.55274 9.66383 10.1278C9.66383 10.7029 9.8686 11.1821 10.2798 11.5275C10.691 11.8745 11.2475 12.048 11.9527 12.048C12.387 12.048 12.8031 11.9687 13.2028 11.81C13.6008 11.6514 13.936 11.382 14.2068 11.0003C14.476 10.6186 14.623 10.0931 14.6461 9.42384L15.0342 9.96916C14.988 10.6616 14.8228 11.2399 14.5421 11.7043C14.2597 12.1686 13.8782 12.5173 13.3977 12.7519C12.9138 12.9866 12.3507 13.1039 11.705 13.1039ZM14.8558 12.8577V10.0567H14.6445V6.74517C14.6445 6.05278 14.4628 5.52068 14.0995 5.15052C13.7362 4.78037 13.1731 4.59529 12.4101 4.59529C12.0584 4.59529 11.7033 4.6019 11.345 4.61347C10.9866 4.62503 10.6464 4.63991 10.3244 4.65808C10.0007 4.67626 9.71666 4.69609 9.4706 4.71923V3.55753C9.72822 3.5344 9.99245 3.51126 10.2633 3.48647C10.5325 3.46334 10.8115 3.44847 11.0989 3.44186C11.3862 3.4369 11.6653 3.43359 11.9345 3.43359C12.8857 3.43359 13.6503 3.55092 14.2316 3.78557C14.8129 4.02022 15.2373 4.38708 15.5081 4.88613C15.7773 5.38518 15.9127 6.04617 15.9127 6.86745V12.8561H14.8558V12.8577Z" fill="#0B1E54"/>
    <path d="M24.0096 13.1574C23.1889 13.1574 22.4689 12.9756 21.8529 12.6121C21.2369 12.2485 20.7547 11.7379 20.4096 11.0802C20.0628 10.4225 19.8778 9.66567 19.8547 8.80803H20.2593V12.8599H19.2024V0.00195312H20.5219V6.43176L20.0116 7.61164C20.0347 6.67303 20.2263 5.87653 20.583 5.22545C20.9413 4.57437 21.4219 4.07698 22.0263 3.73656C22.6307 3.39615 23.3193 3.22595 24.0939 3.22595C24.7742 3.22595 25.3902 3.35484 25.9418 3.61263C26.4933 3.87042 26.9657 4.22405 27.3587 4.67022C27.7517 5.11639 28.0506 5.63031 28.2571 6.21198C28.4618 6.79366 28.5659 7.40673 28.5659 8.05285V8.29907C28.5659 8.93362 28.4602 9.54009 28.2488 10.1218C28.0374 10.7034 27.7352 11.2223 27.3422 11.6801C26.9491 12.1378 26.4702 12.4997 25.9071 12.7624C25.3473 13.0252 24.7131 13.1574 24.0096 13.1574ZM23.8693 11.994C24.5728 11.994 25.1772 11.8238 25.6825 11.4834C26.1862 11.143 26.5743 10.6853 26.8451 10.1102C27.1143 9.53513 27.2497 8.88901 27.2497 8.17348C27.2497 7.45796 27.111 6.79696 26.8368 6.22686C26.5611 5.65675 26.168 5.20893 25.6577 4.88008C25.1475 4.55124 24.5513 4.38599 23.8709 4.38599C23.2368 4.38599 22.6621 4.52645 22.1452 4.80903C21.6283 5.0916 21.2204 5.48654 20.9215 5.99881C20.6226 6.50943 20.4723 7.11093 20.4723 7.80498V8.66757C20.4723 9.32526 20.6226 9.90363 20.9215 10.4027C21.2204 10.9017 21.6283 11.2917 22.1452 11.5743C22.6604 11.8536 23.2351 11.994 23.8693 11.994Z" fill="#0B1E54"/>
    <path d="M34.1841 13.1234C32.9868 13.1234 32.0654 12.8624 31.4213 12.3402C30.7756 11.818 30.447 11.1157 30.4354 10.2349H31.6674C31.6905 10.6811 31.8936 11.0859 32.2751 11.4495C32.6566 11.813 33.2924 11.9964 34.1841 11.9964C35.0164 11.9964 35.6423 11.8229 36.0585 11.4759C36.4746 11.1305 36.6827 10.7092 36.6827 10.2167C36.6827 9.75899 36.5093 9.4037 36.1641 9.15087C35.8174 8.89804 35.317 8.73775 34.6597 8.66669L33.6028 8.56093C32.7573 8.46674 32.0736 8.20565 31.5518 7.77766C31.0299 7.34966 30.769 6.75973 30.769 6.00785C30.769 5.45592 30.9094 4.97504 31.1918 4.56358C31.4742 4.15211 31.8688 3.83318 32.3791 3.60348C32.8894 3.37379 33.4905 3.25977 34.1841 3.25977C35.1816 3.25977 35.9941 3.49442 36.6216 3.96372C37.2491 4.43303 37.5695 5.10229 37.5811 5.97149H36.3491C36.3375 5.52532 36.1493 5.15021 35.786 4.8445C35.4227 4.53879 34.8876 4.38676 34.1841 4.38676C33.4806 4.38676 32.9142 4.5454 32.5558 4.86268C32.1975 5.17995 32.0191 5.56663 32.0191 6.02602C32.0191 6.41271 32.1545 6.73329 32.4237 6.98612C32.6929 7.23895 33.1157 7.39428 33.6903 7.45212L34.7472 7.55788C35.6852 7.66364 36.4515 7.93464 37.0443 8.36759C37.6372 8.8022 37.9328 9.42518 37.9328 10.2349C37.9328 10.7868 37.7776 11.2826 37.4671 11.7238C37.1566 12.1633 36.719 12.5071 36.1559 12.7533C35.5928 12.9995 34.9355 13.1234 34.1841 13.1234Z" fill="#0B1E54"/>
  </g>
</svg>
